<svg xmlns="http://www.w3.org/2000/svg" width="331.38" height="65.18" viewBox="0 0 331.38 65.18">
  <g id="Group_7" data-name="Group 7" transform="translate(-193.988 -44.39)">
    <g id="Group_6" data-name="Group 6" transform="translate(193.988 44.39)">
      <g id="Group_5" data-name="Group 5">
        <g id="Group_1" data-name="Group 1">
          <path id="Path_1" data-name="Path 1" d="M265.866,67.475h0l-3.852,2.1c-8.082,4.194-27.733,13.273-47.876,14.145a29.177,29.177,0,0,1-3.15-.083,24.4,24.4,0,0,1,43.846-20.206l7.077-4.516A32.978,32.978,0,0,0,201.6,76.769a32.921,32.921,0,0,0,.415,5.21,6.606,6.606,0,0,1-2.283-1.279c-2.778-2.728-2.269-5.749.294-8.63-1.989.147-6.054,3.415-6.043,8.141s4.119,7.817,10.28,9.5a32.8,32.8,0,0,0,61.6-22.238Zm-31.461,33.7a24.386,24.386,0,0,1-19.663-9.966,82.485,82.485,0,0,0,27.913-3.816,110.76,110.76,0,0,0,15.825-6.628A24.442,24.442,0,0,1,234.405,101.173Z" transform="translate(-193.988 -44.39)" fill="#01b2ae"/>
        </g>
        <g id="Group_4" data-name="Group 4" transform="translate(87.475 23.646)">
          <g id="Group_2" data-name="Group 2" transform="translate(117.145)">
            <path id="Path_2" data-name="Path 2" d="M434.508,98.79V96.557l8.062-.014v7.063a14.272,14.272,0,0,1-3.83,2.228,11.386,11.386,0,0,1-4.051.746,10.8,10.8,0,0,1-5.1-1.2,7.93,7.93,0,0,1-3.461-3.474,10.926,10.926,0,0,1-1.169-5.076,11.773,11.773,0,0,1,1.163-5.187,7.739,7.739,0,0,1,3.343-3.578A10.479,10.479,0,0,1,434.5,86.9a9.982,9.982,0,0,1,3.732.667,6.2,6.2,0,0,1,2.617,1.864,8.25,8.25,0,0,1,1.44,3.115l-2.272.625a7.049,7.049,0,0,0-1.064-2.286,4.36,4.36,0,0,0-1.819-1.331,6.649,6.649,0,0,0-2.622-.5,7.733,7.733,0,0,0-2.987.526,5.6,5.6,0,0,0-2.031,1.382,6.567,6.567,0,0,0-1.2,1.883,9.933,9.933,0,0,0-.729,3.831,9.29,9.29,0,0,0,.877,4.259,5.612,5.612,0,0,0,2.552,2.544,7.905,7.905,0,0,0,3.556.83,8.421,8.421,0,0,0,3.2-.63,8.237,8.237,0,0,0,2.362-1.342V98.79Z" transform="translate(-424.964 -86.898)" fill="#01b2ae"/>
            <path id="Path_3" data-name="Path 3" d="M450.159,106.19V87.156H452.5V106.19Z" transform="translate(-418.553 -86.832)" fill="#01b2ae"/>
            <path id="Path_4" data-name="Path 4" d="M462.7,98.295q0-3.829,2.129-5.673a6.41,6.41,0,0,1,4.337-1.533,6.191,6.191,0,0,1,4.649,1.863,7.094,7.094,0,0,1,1.8,5.148,9.132,9.132,0,0,1-.8,4.187,5.647,5.647,0,0,1-2.326,2.37,6.756,6.756,0,0,1-3.329.843,6.194,6.194,0,0,1-4.68-1.857A7.411,7.411,0,0,1,462.7,98.295Zm2.4,0a5.874,5.874,0,0,0,1.157,3.968,3.847,3.847,0,0,0,5.8-.008,6.012,6.012,0,0,0,1.155-4.038,5.7,5.7,0,0,0-1.162-3.875,3.851,3.851,0,0,0-5.8-.006A5.837,5.837,0,0,0,465.1,98.295Z" transform="translate(-415.363 -85.832)" fill="#01b2ae"/>
            <path id="Path_5" data-name="Path 5" d="M485.813,106.19h-2.169V87.156h2.338v6.79a4.623,4.623,0,0,1,3.777-1.857,5.8,5.8,0,0,1,2.409.513,4.915,4.915,0,0,1,1.87,1.441,6.984,6.984,0,0,1,1.148,2.239,9.232,9.232,0,0,1,.416,2.8,7.884,7.884,0,0,1-1.753,5.479,5.488,5.488,0,0,1-4.207,1.933,4.39,4.39,0,0,1-3.83-2.037Zm-.026-7a7.148,7.148,0,0,0,.676,3.583,3.338,3.338,0,0,0,5.634.473,6.038,6.038,0,0,0,1.118-3.965,6.15,6.15,0,0,0-1.071-3.985,3.26,3.26,0,0,0-2.59-1.286,3.365,3.365,0,0,0-2.649,1.331A5.845,5.845,0,0,0,485.787,99.193Z" transform="translate(-410.033 -86.832)" fill="#01b2ae"/>
            <path id="Path_6" data-name="Path 6" d="M513.081,103.488a8.74,8.74,0,0,1-2.5,1.559A7.239,7.239,0,0,1,508,105.5a5.02,5.02,0,0,1-3.492-1.109,3.667,3.667,0,0,1-1.219-2.838,3.764,3.764,0,0,1,.46-1.85,3.823,3.823,0,0,1,1.207-1.344,5.692,5.692,0,0,1,1.681-.765,16.673,16.673,0,0,1,2.077-.351,21.374,21.374,0,0,0,4.168-.805c.009-.32.013-.523.013-.61a2.582,2.582,0,0,0-.661-2.012,3.912,3.912,0,0,0-2.662-.793,4.129,4.129,0,0,0-2.435.578,3.524,3.524,0,0,0-1.162,2.045l-2.284-.312a5.66,5.66,0,0,1,1.025-2.37,4.5,4.5,0,0,1,2.065-1.389,9.2,9.2,0,0,1,3.129-.487,8.236,8.236,0,0,1,2.869.416,3.775,3.775,0,0,1,1.623,1.044,3.7,3.7,0,0,1,.727,1.591,13.329,13.329,0,0,1,.117,2.156v3.115a33.535,33.535,0,0,0,.148,4.122,5.228,5.228,0,0,0,.591,1.656h-2.44A4.956,4.956,0,0,1,513.081,103.488Zm-.195-5.22a17.061,17.061,0,0,1-3.817.883,8.8,8.8,0,0,0-2.038.468,2.03,2.03,0,0,0-.922.76,2.066,2.066,0,0,0,.384,2.667,3.036,3.036,0,0,0,2.071.623,4.814,4.814,0,0,0,2.4-.591,3.63,3.63,0,0,0,1.546-1.616,5.65,5.65,0,0,0,.376-2.337Z" transform="translate(-405.033 -85.832)" fill="#01b2ae"/>
            <path id="Path_7" data-name="Path 7" d="M524.148,106.19V87.156h2.338V106.19Z" transform="translate(-399.726 -86.832)" fill="#01b2ae"/>
          </g>
          <g id="Group_3" data-name="Group 3">
            <path id="Path_8" data-name="Path 8" d="M341.1,99.258V96.049h8.284v7.584a10.467,10.467,0,0,1-3.5,2.056,12.727,12.727,0,0,1-4.641.891,10.407,10.407,0,0,1-5.206-1.253,7.965,7.965,0,0,1-3.337-3.583,11.573,11.573,0,0,1-1.117-5.071,10.954,10.954,0,0,1,1.246-5.284,8.4,8.4,0,0,1,3.649-3.545,9.834,9.834,0,0,1,4.557-.947,9.086,9.086,0,0,1,5.536,1.485,6.719,6.719,0,0,1,2.565,4.11l-3.817.714a4.038,4.038,0,0,0-1.512-2.213,4.581,4.581,0,0,0-2.772-.812,5.209,5.209,0,0,0-4.007,1.6,6.725,6.725,0,0,0-1.485,4.738,7.445,7.445,0,0,0,1.505,5.083,5.025,5.025,0,0,0,3.946,1.695,6.646,6.646,0,0,0,2.422-.473,8.353,8.353,0,0,0,2.084-1.149V99.258Z" transform="translate(-331.581 -86.898)" fill="#01b2ae"/>
            <path id="Path_9" data-name="Path 9" d="M357.054,90.532V87.156H360.7v3.376Zm0,15.658V92.4H360.7V106.19Z" transform="translate(-325.099 -86.832)" fill="#01b2ae"/>
            <path id="Path_10" data-name="Path 10" d="M370.149,92.467h2.025V91.428a6.924,6.924,0,0,1,.37-2.6,2.932,2.932,0,0,1,1.364-1.395,5.242,5.242,0,0,1,2.513-.538,10.126,10.126,0,0,1,3.051.467l-.493,2.545A7.17,7.17,0,0,0,377.3,89.7a1.491,1.491,0,0,0-1.135.369,2.149,2.149,0,0,0-.345,1.423v.973h2.727v2.869h-2.727v10.92h-3.649V95.335h-2.025Z" transform="translate(-321.767 -86.898)" fill="#01b2ae"/>
            <path id="Path_11" data-name="Path 11" d="M393.587,92.324v2.909h-2.493v5.557a14.111,14.111,0,0,0,.07,1.966.8.8,0,0,0,.326.462,1.023,1.023,0,0,0,.616.182,4.707,4.707,0,0,0,1.468-.351l.311,2.831a7.267,7.267,0,0,1-2.881.544,4.582,4.582,0,0,1-1.779-.33,2.6,2.6,0,0,1-1.163-.858,3.389,3.389,0,0,1-.513-1.421,17.716,17.716,0,0,1-.117-2.57V95.233h-1.675V92.324h1.675V89.586l3.662-2.129v4.867Z" transform="translate(-317.795 -86.756)" fill="#01b2ae"/>
            <path id="Path_12" data-name="Path 12" d="M402.5,90.532V87.156h3.649v3.376Zm0,15.658V92.4h3.649V106.19Z" transform="translate(-313.536 -86.832)" fill="#01b2ae"/>
          </g>
        </g>
      </g>
    </g>
  </g>
</svg>
