<svg xmlns="http://www.w3.org/2000/svg" width="201.982" height="200" viewBox="0 0 201.982 200">
  <g id="tick" transform="translate(0 -2.531)">
    <circle id="Ellipse_358" data-name="Ellipse 358" cx="100" cy="100" r="100" transform="translate(0 2.531)" fill="#01b2ae"/>
    <path id="Path_9125" data-name="Path 9125" d="M344.491,141.282a99.655,99.655,0,0,0-11.786-24.36l-87.534,91.172.176,10.146,4.132-.026,95.012-76.932Z" transform="translate(-149.401 -69.707)" fill="#37a18e"/>
    <path id="Path_9126" data-name="Path 9126" d="M259.365,73,241.533,55.386a6.286,6.286,0,0,0-8.816,0L156.491,133.9l-32.872-32.48a6.289,6.289,0,0,0-8.818,0L99,117.04a6.1,6.1,0,0,0,0,8.708l52.758,52.122a8.5,8.5,0,0,0,10.288,0L259.37,81.714a6.108,6.108,0,0,0,0-8.71Z" transform="translate(-59.213 -31.109)" fill="#f8f8f8"/>
    <path id="Path_9127" data-name="Path 9127" d="M162.044,203.682l97.324-96.156a6.108,6.108,0,0,0,0-8.71l-2.91-2.876L156.344,194.41l-55.136-53.744L99,142.85a6.1,6.1,0,0,0,0,8.708l52.756,52.124a8.5,8.5,0,0,0,10.288,0Z" transform="translate(-59.216 -56.921)" fill="#ebebeb"/>
  </g>
</svg>
